<svg xmlns="http://www.w3.org/2000/svg" viewBox="0 0 357.61 107.5"><defs><style>.cls-1{fill:#7fbd27;}</style></defs><g id="Layer_2" data-name="Layer 2"><g id="레이어_1" data-name="레이어 1"><path class="cls-1" d="M176.32,17.58a3.7,3.7,0,0,0,5,0l4.84-4.42a3.69,3.69,0,0,0-2.48-6.41H174a3.69,3.69,0,0,0-2.48,6.41Z"/><path class="cls-1" d="M174,45h9.69a3.69,3.69,0,0,0,2.48-6.41l-4.84-4.42a3.68,3.68,0,0,0-5,0l-4.84,4.42A3.69,3.69,0,0,0,174,45Z"/><path class="cls-1" d="M265.45,48.71c10.91,0,13.21-9.84,13.21-13.49V1.85s0-.06,0-.11a1,1,0,0,0-1-1h-18a1,1,0,0,0-1,1V32.33s0,.37,0,1V36c-.06,1.33-.62,5.22-5.45,5.22H228.82A5.06,5.06,0,0,1,223.37,36V1.84s0-.06,0-.1a1,1,0,0,0-1-1h-18a1,1,0,0,0-1,1V35.22c0,3.81,2.09,13.49,13.22,13.49Z"/><path class="cls-1" d="M319.52,42a100.69,100.69,0,0,1-11.12-.49c-2.94-.29-5.91-.64-8.82-1.2a74.1,74.1,0,0,1-13.52-4c-.81-.32-1,0-1,.24l0,.25.63,7.55a1.49,1.49,0,0,0,1.11,1.3l1.67.39c5.49,1.33,20.23,3.34,33.79,3.34,21.29,0,36.13-4.48,35.3-14.51-.44-5.22-4.68-9.89-13.52-12.5-15.24-4.46-33.91-4.87-34.34-10.09-.34-4.12,6.15-4.9,13.92-4.9,4.89,0,20.81.57,31.5,5.62,0,0,.65.21.6-.34l-.62-7.53A1.68,1.68,0,0,0,354,3.54c-.47-.12-1-.23-1.64-.36A144,144,0,0,0,318.51,0c-1.67,0-3.36.08-5,.17a83.33,83.33,0,0,0-11.15,1.19C298.5,2.08,294.41,3,291,4.81a14.74,14.74,0,0,0-3,2.08c-4.42,4.12-3.59,10.8,1,14.4a18.94,18.94,0,0,0,4.11,2.49,35.82,35.82,0,0,0,5.73,1.77c17.58,4.26,32.59,4,33.1,10.13S323.59,42,319.52,42Z"/><path class="cls-1" d="M13.22,48.71H62.09c10.92,0,13.22-9,13.22-13.49V1.85s0-.06,0-.11a1,1,0,0,0-1-1h-18a1,1,0,0,0-1,1V36a5,5,0,0,1-5.45,5.22H25.47A5.06,5.06,0,0,1,20,36V28.59s0-.06,0-.1a1,1,0,0,0-1-1H1a1,1,0,0,0-1,1v6.73C0,39,2.09,48.71,13.22,48.71Z"/><path class="cls-1" d="M162.63,48.71c.85,0,.77-.61.73-.76-.54-1.88-2.46-6.52-8-6.52H119.92c-6.14,0-12.14-6.83-12.14-14h44.5c1.08,0,1.15-1.28,1.15-1.28v-4.9c0-1-.63-1.14-1-1.16H108c0-6.74,6.52-12,12.48-12h37.17c4,0,5.66-4.86,6.13-6.66.16-.57-.21-.66-.39-.67H109.9S85.37.73,85.37,23c0,0-.79,11.55,7.79,19.13,0,0,5.66,6.56,19,6.56Z"/><path class="cls-1" d="M142.67,63.84H136a.82.82,0,0,0-.81.83V89.85q0,3.93-6.27,4.62-3,.33-8.22.38V89a12,12,0,0,0,6.37-3.22,9.76,9.76,0,0,0,.56-12.14h3.56a.82.82,0,0,0,.81-.83v-2a.83.83,0,0,0-.81-.84H120.77V64a.82.82,0,0,0-.81-.83h-6.65a.82.82,0,0,0-.81.83v5.87H101.7a.83.83,0,0,0-.81.84v2a.82.82,0,0,0,.81.83h3.86a9,9,0,0,0-1.9,5.74,8.75,8.75,0,0,0,2.47,6.4A11.61,11.61,0,0,0,112.55,89v5.93H100.11a.83.83,0,0,0-.82.84v2a.83.83,0,0,0,.82.83h13.57q8.73,0,11.15-.18,7.9-.57,10.38-2.9v11.16a.82.82,0,0,0,.81.83h6.65a.82.82,0,0,0,.81-.83v-42A.82.82,0,0,0,142.67,63.84ZM116.61,85.3a4.8,4.8,0,0,1-3.8-1.63,7.22,7.22,0,0,1,0-8.65,5.22,5.22,0,0,1,7.6,0,7.22,7.22,0,0,1,0,8.65A4.82,4.82,0,0,1,116.61,85.3Z"/><path class="cls-1" d="M197.06,79h-7.15V64.67a.83.83,0,0,0-.82-.83h-6.65a.82.82,0,0,0-.81.83v42a.82.82,0,0,0,.81.83h6.65a.83.83,0,0,0,.82-.83v-24h7.15a.83.83,0,0,0,.81-.84v-2A.82.82,0,0,0,197.06,79Z"/><path class="cls-1" d="M167.61,71.13V65.24a.83.83,0,0,0-.81-.84h-6.75a.83.83,0,0,0-.82.84v5.89q0,7.56-2.41,12.42a23.08,23.08,0,0,1-8.29,8.93.85.85,0,0,0-.16,1.29l2.84,3a.79.79,0,0,0,1,.17,28.85,28.85,0,0,0,7-5.35A16.66,16.66,0,0,0,163.6,85a19.93,19.93,0,0,0,5,6.7,25.35,25.35,0,0,0,6.53,4.83.79.79,0,0,0,.93-.21l2.74-3.1a.84.84,0,0,0-.18-1.27Q167.6,84.9,167.61,71.13Z"/><path class="cls-1" d="M46.15,88.5H.81a.82.82,0,0,0-.81.83v2a.83.83,0,0,0,.81.84H19.32v14.45a.82.82,0,0,0,.81.83h6.65a.82.82,0,0,0,.81-.83V92.22H46.15a.83.83,0,0,0,.81-.84v-2A.82.82,0,0,0,46.15,88.5Z"/><path class="cls-1" d="M4.13,79.39a.84.84,0,0,0-.61,1.14l1.37,3.35a.83.83,0,0,0,.88.51,38.56,38.56,0,0,0,10.57-3.13c3.52-1.62,6-3.44,7.29-5.47q2.16,3,7.71,5.56a36.7,36.7,0,0,0,10.1,3.05.82.82,0,0,0,.87-.53l1.26-3.31A.84.84,0,0,0,43,79.44a28.29,28.29,0,0,1-9.87-3.74,10.57,10.57,0,0,1-5-7H40.6a.83.83,0,0,0,.81-.84V65.83A.82.82,0,0,0,40.6,65H6.31a.82.82,0,0,0-.81.83v2.06a.83.83,0,0,0,.81.84H18.85C18.09,73.87,13.19,77.63,4.13,79.39Z"/><path class="cls-1" d="M84.06,88.36h6.65a.83.83,0,0,0,.81-.84V64.67a.82.82,0,0,0-.81-.83H84.06a.83.83,0,0,0-.82.83V87.52A.83.83,0,0,0,84.06,88.36Z"/><path class="cls-1" d="M64.54,78.18a16.2,16.2,0,0,0,4.76,5.46,21.72,21.72,0,0,0,6.52,3.7.8.8,0,0,0,.89-.29l2.21-3a.84.84,0,0,0-.31-1.26A17.89,17.89,0,0,1,71.38,77a17.24,17.24,0,0,1-2.83-10.18V65.19a.83.83,0,0,0-.81-.84H61a.83.83,0,0,0-.81.84v1.73q0,6.4-2.55,10.28a19.27,19.27,0,0,1-7.73,6.27.84.84,0,0,0-.29,1.27l2.33,3a.81.81,0,0,0,1,.26,28.43,28.43,0,0,0,7-4.25A15.45,15.45,0,0,0,64.54,78.18Z"/><path class="cls-1" d="M88.38,90.41H58.78a.83.83,0,0,0-.81.84v2a.82.82,0,0,0,.81.83h23c1,0,1.55.49,1.55,1.45v11.1a.82.82,0,0,0,.81.83h6.8a.82.82,0,0,0,.81-.83V93.73C91.72,91.51,90.75,90.41,88.38,90.41Z"/><path class="cls-1" d="M227.86,84.58a37,37,0,0,1-2.1-13.36v-3H232a.83.83,0,0,0,.81-.84v-2a.83.83,0,0,0-.81-.84H211.67a.83.83,0,0,0-.81.84v2a.83.83,0,0,0,.81.84H218v3q0,8.55-1.85,13.31a22.46,22.46,0,0,1-6.59,8.85.85.85,0,0,0,0,1.28l3.06,2.71a.81.81,0,0,0,1,0,24.14,24.14,0,0,0,5.18-5.07A17.81,17.81,0,0,0,222,86a19.47,19.47,0,0,0,3.44,6.44,21.55,21.55,0,0,0,4.72,4.7.8.8,0,0,0,1-.07l3-2.7a.87.87,0,0,0,0-1.29A20.86,20.86,0,0,1,227.86,84.58Z"/><path class="cls-1" d="M253.77,63.84h-5.68a.82.82,0,0,0-.81.83v42a.82.82,0,0,0,.81.83h5.68a.82.82,0,0,0,.81-.83v-42A.82.82,0,0,0,253.77,63.84Z"/><path class="cls-1" d="M243.65,63.84h-5.42a.82.82,0,0,0-.81.83v13.6h-6.59a.83.83,0,0,0-.81.84v2a.82.82,0,0,0,.81.83h6.59v24.18a.82.82,0,0,0,.81.83h5.42a.82.82,0,0,0,.81-.83V64.67A.82.82,0,0,0,243.65,63.84Z"/><path class="cls-1" d="M306,88.45H260.7a.82.82,0,0,0-.81.83v2a.83.83,0,0,0,.81.84h18.51v14.5a.82.82,0,0,0,.81.83h6.65a.82.82,0,0,0,.81-.83V92.17H306a.83.83,0,0,0,.81-.84v-2A.82.82,0,0,0,306,88.45Z"/><path class="cls-1" d="M267.34,74.3a10,10,0,0,0,4.11,8.36q4.32,3.18,11.92,3.17t11.87-3.17a10.56,10.56,0,0,0,0-16.72q-4.26-3.22-11.87-3.22t-11.92,3.22A10,10,0,0,0,267.34,74.3Zm10.28-5.64a8.46,8.46,0,0,1,11.51,0,8.62,8.62,0,0,1,0,11.28,8.46,8.46,0,0,1-11.51,0,8.59,8.59,0,0,1,0-11.28Z"/><path class="cls-1" d="M355.51,95.27H310.17a.83.83,0,0,0-.81.84v2.06a.82.82,0,0,0,.81.83h45.34a.82.82,0,0,0,.81-.83V96.11A.83.83,0,0,0,355.51,95.27Z"/><path class="cls-1" d="M336.29,64.68h-6.9a.82.82,0,0,0-.81.84v.94q0,11.31-15.15,15.61a.84.84,0,0,0-.52,1.18l1.66,3.27a.83.83,0,0,0,.91.44,37.23,37.23,0,0,0,10.89-4.32q4.92-3,6.68-6.75,1.84,3.64,7.14,6.84a33.73,33.73,0,0,0,10.42,4.19.8.8,0,0,0,.9-.46L353,83.27a.85.85,0,0,0-.5-1.17q-7.29-2.25-11.23-6.07a12.76,12.76,0,0,1-4.19-9.43V65.52A.82.82,0,0,0,336.29,64.68Z"/></g></g></svg>