<svg xmlns="http://www.w3.org/2000/svg" viewBox="0 0 566.25 53"><defs><style>.cls-1{fill:#485b64;}</style></defs><g id="Layer_2" data-name="Layer 2"><g id="레이어_1" data-name="레이어 1"><text/><path class="cls-1" d="M43.59,23.65a14,14,0,0,1-.44,3.69,5.88,5.88,0,0,1-1.31,2.53H34.69V22.61H27.2a7.87,7.87,0,0,1-1.69,4.7h-7V25.16A47.93,47.93,0,0,1,4,27.31H2.32A2,2,0,0,1,0,25V1.51H27.26v4h7.43V.35h8.9ZM7.09,42.07a8.38,8.38,0,0,1,1.28-4.53A10.72,10.72,0,0,1,12,34.08a20,20,0,0,1,5.78-2.2,34,34,0,0,1,7.7-.79,34.35,34.35,0,0,1,7.73.79,20.27,20.27,0,0,1,5.84,2.2,10.93,10.93,0,0,1,3.72,3.46,8.5,8.5,0,0,1,0,9.07,10.91,10.91,0,0,1-3.72,3.45,19.7,19.7,0,0,1-5.84,2.18,35.65,35.65,0,0,1-7.73.76,35.24,35.24,0,0,1-7.7-.76A19.41,19.41,0,0,1,12,50.06a10.69,10.69,0,0,1-3.66-3.45A8.39,8.39,0,0,1,7.09,42.07ZM8.78,21.44c1.66,0,3.3-.1,4.91-.2s3.22-.26,4.85-.49V7.21H8.78ZM16.5,42.07a4.48,4.48,0,0,0,2.39,4,12.83,12.83,0,0,0,6.68,1.46,13,13,0,0,0,6.65-1.46,4.47,4.47,0,0,0,0-8,13.27,13.27,0,0,0-6.65-1.42,13.06,13.06,0,0,0-6.68,1.42A4.43,4.43,0,0,0,16.5,42.07ZM27.26,16.5h7.43V11.56H27.26Z"/><path class="cls-1" d="M55.38,52.36A2.05,2.05,0,0,1,53.06,50V34.52H67.7V29.58H47.65V23.77H96.7v4.07q-1.86,1.74-6.51,1.74H76.65v1.86a9.71,9.71,0,0,1-.46,3.08H91.3V45.85q0,4.71-1.75,6.51h-7V50a72.28,72.28,0,0,1-9.76,1.8,92.69,92.69,0,0,1-10.64.58ZM91.65.06V5.75H85.89V8.43a15.79,15.79,0,0,1-1,5.75l3.63-.26c1.18-.1,2.35-.22,3.51-.38V18a86.58,86.58,0,0,1-19.12,2.09H52.36v-5.7h6.1V5.75H52.71V.06ZM64,46.78q4.77,0,9.39-.17T82.52,46v-6H61.89v6.86Zm12.9-32.43c.12-.62.22-1.29.29-2a22.77,22.77,0,0,0,.12-2.44V5.75H67.06v8.6Z"/><path class="cls-1" d="M100.42,7.26V1.51h25.92v8.78q0,13.89-26.56,19.35V23.36q8.84-1.68,13.22-5c2.93-2.2,4.39-4.9,4.39-8.07v-3Zm7.79,44.81c-1.44,0-2.15-.78-2.15-2.32V32h35.16V45.56c0,3.14-.59,5.31-1.75,6.51h-7.15V49.86a48,48,0,0,1-14.58,2.21ZM115,46.2c1.28,0,2.69,0,4.24-.06l4.65-.14q2.32-.09,4.53-.24c1.47-.09,2.79-.2,3.95-.32V37.72H115Zm26.27-34.75h7V17.9h-7V23a14,14,0,0,1-.44,3.68,5.88,5.88,0,0,1-1.31,2.53h-7.15V.35h8.9Z"/><path class="cls-1" d="M155.92,52.65a2.06,2.06,0,0,1-2.33-2.32V38.7H183V35.57H153.48V30.22h5.34V24.41H148.19V18.65H182a36.94,36.94,0,0,0,.56-4.35c.09-1.48.14-3,.14-4.42V5.46h-29.4V.12H191.6v8a25.79,25.79,0,0,1-2,10.51h7.67v4q-1.86,1.75-6.51,1.75H186.6v2.73a9.71,9.71,0,0,1-.46,3.08h5.69v12a1.54,1.54,0,0,1-1.74,1.74h-27.6v3.26h13.42q4.65,0,9-.15c2.87-.09,5.64-.32,8.31-.67v4.19a86.58,86.58,0,0,1-19.12,2.09Zm11.74-25.51a9.71,9.71,0,0,1-.47,3.08h10.58V24.41H167.66Z"/><path class="cls-1" d="M215,8.48a21.61,21.61,0,0,1-.15,2.59,18.35,18.35,0,0,1-.43,2.41h3.14a19.7,19.7,0,0,0,1.57,6.31,10.12,10.12,0,0,0,3.77,4.56v5.29q-8.07-3.43-11.39-9.36-4.12,6.11-12.72,10.17V24.06a16.66,16.66,0,0,0,5.95-6.77,20.24,20.24,0,0,0,2-8.81V.87H215Zm-7.15,33.88A7.85,7.85,0,0,1,209.18,38,10.68,10.68,0,0,1,213,34.58a21,21,0,0,1,6-2.15,37.55,37.55,0,0,1,7.94-.76,38,38,0,0,1,8,.76,21.57,21.57,0,0,1,6,2.15A11,11,0,0,1,244.72,38a8,8,0,0,1,0,8.83,10.73,10.73,0,0,1-3.84,3.34,22.23,22.23,0,0,1-6,2.12,38,38,0,0,1-8,.76,37.55,37.55,0,0,1-7.94-.76,21.67,21.67,0,0,1-6-2.12,10.43,10.43,0,0,1-3.78-3.34A7.85,7.85,0,0,1,207.87,42.36Zm9.42,0a4.19,4.19,0,0,0,2.55,3.81,15.24,15.24,0,0,0,7.09,1.37A15.44,15.44,0,0,0,234,46.17a4.06,4.06,0,0,0,0-7.61,15.44,15.44,0,0,0-7.06-1.37,15.24,15.24,0,0,0-7.09,1.37A4.19,4.19,0,0,0,217.29,42.36Zm15.22-31.67h4.77V.35h8.25v24a14.57,14.57,0,0,1-.41,3.54,8.87,8.87,0,0,1-1.33,3h-6.51v-14h-4.77v6a13,13,0,0,1-.46,3.6,11,11,0,0,1-1.28,2.91h-6.39V.64h8.13Z"/><path class="cls-1" d="M249.36,25.57A16,16,0,0,0,257.44,19a19.3,19.3,0,0,0,2.62-10.17V1.22h9V8.78a23.39,23.39,0,0,1-.81,6.21h3.84a13,13,0,0,0,2.79,6.83,12.25,12.25,0,0,0,6.5,4v5.87q-11.67-2.44-15.86-10.64a23.17,23.17,0,0,1-6.6,6.6,38.7,38.7,0,0,1-9.56,4.56Zm16.51,20.57h10.69q4.65,0,8.95-.14t8.31-.67V50a86.58,86.58,0,0,1-19.12,2.09H259.19a2.06,2.06,0,0,1-2.33-2.32V34.81h9ZM292,13.37h7v6.45h-7V32.31q0,4.71-1.74,6.51h-7.15V.35H292Z"/><path class="cls-1" d="M311.25,2.61h19.41v5.7H319.51v28c2.28,0,4.54-.16,6.77-.38a63.27,63.27,0,0,0,6.71-1v4.35a45.35,45.35,0,0,1-8.49,2.47,48.14,48.14,0,0,1-9.18.85h-1.74a2.06,2.06,0,0,1-2.33-2.33Zm32.26,40.05a18.07,18.07,0,0,1-.41,4.06,8.29,8.29,0,0,1-1.34,3h-6.45V25.28h-9.18V19.06h9.18V.64h8.2Zm12.55,2.49a19.5,19.5,0,0,1-.38,4.07,7.39,7.39,0,0,1-1.36,3h-6.57V.35h8.31Z"/><path class="cls-1" d="M361.41,22.61a34.19,34.19,0,0,1,1-8.58,20.07,20.07,0,0,1,2.88-6.5,13.25,13.25,0,0,1,4.56-4.16,12.44,12.44,0,0,1,6.05-1.45,12.52,12.52,0,0,1,10.69,5.61,21,21,0,0,1,2.88,6.5,33.67,33.67,0,0,1,1,8.58,33.39,33.39,0,0,1-1,8.51,20.54,20.54,0,0,1-2.88,6.48,12.59,12.59,0,0,1-10.69,5.58,12.55,12.55,0,0,1-6.05-1.45,13.46,13.46,0,0,1-4.56-4.13,19.68,19.68,0,0,1-2.88-6.48A33.89,33.89,0,0,1,361.41,22.61Zm8.83,0a32.7,32.7,0,0,0,1.45,10.89c1,2.66,2.38,4,4.24,4s3.29-1.32,4.28-4a32.34,32.34,0,0,0,1.48-10.89,32.08,32.08,0,0,0-1.48-10.93q-1.48-3.88-4.28-3.89t-4.24,3.89Q370.24,15.58,370.24,22.61Zm35.22,22.54a19.5,19.5,0,0,1-.38,4.07,7.4,7.4,0,0,1-1.37,3h-7.15V.35h8.9Z"/><path class="cls-1" d="M421.09,24.93V36.26h.7q5.16,0,10.28-.4c3.41-.28,6.86-.68,10.35-1.22v4.41a78.94,78.94,0,0,1-11.28,2.62,79.06,79.06,0,0,1-12.38.93H414.7a2.06,2.06,0,0,1-2.33-2.33V2.5h26.15V8.25H421.09v11h15.69v5.69Zm34.63,20.22a19.55,19.55,0,0,1-.37,4.07,7.53,7.53,0,0,1-1.37,3h-7.15V24.47H439.1v-6.4h7.73V.35h8.89Z"/><path class="cls-1" d="M469.79,29.58V23.77h20v-5H477.75a2.06,2.06,0,0,1-2.33-2.32V0h9V12.84h8.14q5.58,0,10.89-.14T513.9,12v4.65q-3.5.69-7.24,1.16t-7.87.7v5.23h20v4.07c-1.24,1.16-3.4,1.74-6.5,1.74Zm4.65,13.54A6.69,6.69,0,0,1,475.8,39a10.9,10.9,0,0,1,3.92-3.11,24,24,0,0,1,6.22-2,43.86,43.86,0,0,1,8.25-.7,44.83,44.83,0,0,1,8.31.7,24.32,24.32,0,0,1,6.31,2,11.15,11.15,0,0,1,4,3.11,6.61,6.61,0,0,1,1.4,4.1,6.48,6.48,0,0,1-1.4,4.07,10.93,10.93,0,0,1-4,3.05,25.56,25.56,0,0,1-6.31,1.95,45.75,45.75,0,0,1-8.31.69,44.76,44.76,0,0,1-8.25-.69,25.2,25.2,0,0,1-6.22-1.95,10.69,10.69,0,0,1-3.92-3.05A6.57,6.57,0,0,1,474.44,43.12Zm9.06,0c0,1.28.95,2.31,2.85,3.11a21.34,21.34,0,0,0,8,1.19,21.57,21.57,0,0,0,7.85-1.19c2-.8,3-1.83,3-3.11s-1-2.37-2.93-3.17a26.95,26.95,0,0,0-15.84,0C484.45,40.75,483.5,41.8,483.5,43.12Z"/><path class="cls-1" d="M525,27.31A2,2,0,0,1,522.67,25V1.39h8.77V8.66h9.77V1.39h8.72v9.42h7.43V.35h8.89V22.61a14.17,14.17,0,0,1-.43,3.69,5.84,5.84,0,0,1-1.31,2.52h-7.15V17h-7.43v4.06a14.17,14.17,0,0,1-.44,3.7,5.9,5.9,0,0,1-1.31,2.52h-7V25.16a47.93,47.93,0,0,1-14.59,2.15Zm7.79,24.76c-1.43,0-2.15-.78-2.15-2.32V31.56h8.89v4.35h17.84V31.56h8.89v14q0,4.71-1.74,6.51h-7.15V49.86a48.08,48.08,0,0,1-14.58,2.21Zm-1.34-30.63c1.67,0,3.31-.1,4.91-.2s3.23-.26,4.86-.49V14.3h-9.77Zm8.08,24.76c1.28,0,2.71,0,4.3-.06l4.8-.14q2.4-.09,4.68-.24c1.51-.09,2.86-.2,4.06-.32V41.55H539.52Z"/></g></g></svg>